<?xml version="1.0" encoding="UTF-8"?>
<svg xmlns="http://www.w3.org/2000/svg" id="b" viewBox="0 0 110 88.09">
  <g id="c">
    <g>
      <path d="M106.33,45.65c-2.97-3.09-7.18-5.17-10.88-3.87-2.25,.79-4.66,.67-6.21,.45,.6-1.33,.97-3.08-.06-4.59,0,0,6.37-1.67,8.79-5.46s5.46-13.85,5.46-16.55-.76-8.01-2.88-11.04c-2.12-3.03-6.37-6.06-7.73-3.79-1.36,2.27-.76,8.04-.3,9.25,.45,1.21-1.48,6.96-2.69,9.53-1.21,2.58-3.68,6.6-3.83,9.11-.06,.98,.14,2.32,.5,3.69-2.48-4.66-6.83-10.82-15.82-13.54-13.49-4.09-24.26-3.64-29.26-2.12-3.93,1.19-12.16,4.35-17.5,6.82-.05-.45-.1-.72-.1-.72,0,0,.6-2.37-1.15-5.07-1.74-2.7-8.56-1.59-13.64-2.22-5.07-.63-9.04-2.06-9.04,0s3.81,11.26,9.67,11.58c1.98,.11,3.88,.61,5.59,1.17-1.58,.96-2.52,1.74-2.19,2.39,.61,1.21-.95,1.22-1.06,2.12-.25,2.06,2.73,7.58,3.18,9.25,.18,.65,1.36,3.04,3.22,5.95-2.23,1.25-5.04,3.26-8.36,4.15-5.67,1.53-7.49,11.32-7.06,13.33s4.01-.2,8.84-1.88c4.83-1.67,11.73-2,12.88-5,.26-.69,.4-1.33,.47-1.92,1.72,1.74,3.56,3.26,5.47,4.31,8.04,4.4,17.74,8.34,30.17,6.82,4.84-.59,9.22-2.29,12.87-4.29-.21,1.26-.15,2.38-1.5,4.62-2.12,3.51-8.64,10.59-11.22,12.25s-4.7,5.61,.91,7.43c5.61,1.82,16.83-5.91,20.92-9.85s6.82-11.83,5.91-16.22c-.91-4.4-7.84-3.21-7.84-3.21h0c1.75-1.52,2.95-2.85,3.44-3.62,1.21-1.86,2.49-2.62,3.11-4.04,2.23,1.08,5.26,2.85,9.55,4.68,6.32,2.68,12.51-3.69,12.92-4.85,.41-1.16-.61-1.96-3.58-5.06Zm-36.13,.33c-1.48,.63-2.91,1.29-4.09,2.21-1.17,.91-2.05,2.08-2.57,3.35-.53,1.3-.98,2.56-1.4,3.73-.83,2.33-1.57,4.28-2.31,5.55-.36,.63-.66,1.11-.85,1.45l-.3,.51,.26-.53c.17-.35,.41-.86,.74-1.51,.33-.64,.64-1.46,.96-2.41,.32-.95,.64-2.04,1.01-3.22,.37-1.18,.76-2.47,1.27-3.82,.32-.87,.81-1.73,1.45-2.49-.02-.38-.18-2.38-1-4.15-.76-1.64-2.7-2.18-3.1-2.28h-.03l-.16,.04-.34,.05c-.85,.11-1.65,.19-2.45,.34-.8,.15-1.57,.35-2.32,.62-.74,.27-1.46,.61-2.13,.99-.16,.1-.33,.21-.49,.31l-.12,.08-.11,.08-.24,.17c-.34,.23-.6,.47-.9,.71-1.14,1.01-2.14,2.12-3.03,3.23-.88,1.11-1.67,2.21-2.35,3.24-.69,1.04-1.27,2.01-1.79,2.89-.55,.88-1.12,1.56-1.61,2.11-.49,.54-.92,.93-1.21,1.19-.29,.26-.46,.39-.46,.39,0,0,.15-.14,.42-.42,.27-.28,.65-.71,1.11-1.27,.45-.56,.97-1.28,1.45-2.16,.23-.45,.48-.93,.75-1.44,.27-.5,.57-1.03,.9-1.56,.65-1.08,1.39-2.22,2.26-3.38,.36-.47,.73-.94,1.13-1.41-.09-.56-.51-3.34-.51-5.25,0-1.38-2.03-3.05-3.06-3.76-.08,.05-.16,.1-.25,.15-.28,.16-.56,.32-.84,.47-.56,.29-1.11,.59-1.66,.88-1.09,.58-2.17,1.14-3.15,1.75-.49,.3-.97,.63-1.41,.96-.44,.33-.86,.68-1.22,1.05-.18,.18-.34,.38-.51,.58-.16,.2-.32,.4-.47,.6-.31,.4-.6,.79-.87,1.18-.54,.77-1.04,1.48-1.5,2.1-.46,.62-.89,1.15-1.27,1.55-.38,.41-.72,.68-.96,.86-.24,.17-.38,.25-.38,.25,0,0,.13-.09,.35-.29,.22-.2,.52-.51,.85-.94,.34-.43,.71-.98,1.12-1.63,.4-.65,.86-1.39,1.35-2.2,.39-.61,.8-1.26,1.29-1.91-.09-.43-.84-3.89-1.72-5.92-.67-1.57-1.52-2.83-1.94-3.41-.24,.18-.48,.37-.7,.57l-.39,.37c-.13,.12-.26,.25-.41,.37-.29,.25-.57,.48-.85,.72-.56,.46-1.14,.88-1.69,1.3-.55,.42-1.09,.8-1.6,1.17-.51,.37-1,.71-1.45,1.03-.9,.64-1.65,1.16-2.17,1.54-.26,.19-.46,.34-.59,.45-.13,.11-.2,.17-.2,.17l.17-.21c.11-.13,.28-.33,.51-.55,.46-.46,1.13-1.09,1.97-1.81,.83-.73,1.82-1.55,2.88-2.42,.53-.44,1.07-.89,1.63-1.35,.27-.23,.55-.46,.81-.7,.13-.11,.26-.24,.4-.37l.41-.39c.29-.26,.6-.49,.91-.71,.31-.22,.62-.41,.85-.61,.11-.1,.2-.19,.26-.29,.06-.09,.09-.21,.12-.34,0-.07,.02-.11,.01-.2v-.22h0c0-.1-.06-.24-.12-.36-.28-.53-.72-1.04-1.13-1.49-.42-.45-.84-.88-1.23-1.26-.79-.76-1.46-1.38-1.94-1.82-.48-.43-.75-.68-.75-.68,0,0,.32,.19,.86,.54,.54,.36,1.3,.88,2.17,1.57,.44,.34,.9,.73,1.37,1.17,.46,.45,.96,.92,1.35,1.59,.02,.05,.05,.09,.07,.14,.57-.19,1.73-.59,3.27-1.14,1.86-.67,3.29-3.1,3.53-3.54-.3-.37-.46-.76-.59-1.12-.26-.74-.39-1.4-.48-1.95-.09-.55-.14-.98-.17-1.27-.02-.29-.04-.45-.04-.45,0,0,.09,.63,.36,1.69,.13,.53,.31,1.18,.61,1.87,.15,.34,.34,.7,.6,.99,.07,.07,.14,.14,.21,.18,.07,.05,.18,.11,.28,.16,.2,.1,.4,.21,.61,.32,.84,.44,1.75,.9,2.71,1.42,.48,.26,.96,.54,1.45,.85,.49,.32,.99,.61,1.47,1.09,.05,.05,.1,.11,.15,.17,.85-.13,3.65-.62,4.77-1.61l2.81-2.5c-.15-.4-.23-.78-.3-1.16-.19-1.01-.24-1.9-.28-2.63-.04-.73-.03-1.3-.03-1.7v-.6s.04,.83,.2,2.28c.08,.72,.19,1.6,.43,2.57,.12,.48,.28,1.01,.54,1.44,.28,.42,.78,.75,1.3,1.06,1.05,.63,2.29,1.18,3.55,1.9,.63,.36,1.28,.75,1.87,1.31,.29,.29,.59,.62,.72,1.11,.04,.12,.05,.24,.06,.37,0,.07,0,.12,0,.16v.15c0,.09,0,.17-.01,.26,.8-.42,2.3-1.15,3.96-1.59,2.21-.59,3.51-2.36,3.52-2.38l.03,.03c-.08-.25-.13-.51-.16-.76-.03-.29-.02-.59,.01-.88l.03-.2,.03-.2,.07-.37c.15-.98,.2-1.86,.2-2.58,0-.72-.02-1.29-.06-1.67-.03-.39-.06-.59-.06-.59,0,0,.05,.2,.11,.58,.06,.38,.15,.95,.18,1.67,.04,.73,.05,1.61-.04,2.63l-.04,.39-.02,.19-.02,.2c-.01,.25,0,.5,.04,.77,.09,.52,.29,1.06,.6,1.57,.6,1.03,1.53,1.98,2.59,2.9,.53,.46,1.1,.91,1.69,1.36,.59,.45,1.22,.92,1.78,1.52,.28,.3,.55,.64,.75,1.04,.2,.4,.32,.84,.36,1.29,.08,.9-.14,1.74-.41,2.54-.07,.2-.14,.4-.22,.59l-.06,.15-.06,.15-.12,.28c-.18,.4-.39,.78-.64,1.15-.26,.36-.56,.71-.91,1-.35,.29-.75,.53-1.15,.71-.81,.36-1.62,.57-2.4,.81-.78,.24-1.52,.5-2.27,.82Z" fill="#fff"></path>
      <path d="M62.07,33.14c.01-.19,.02-.38,.03-.56v-.14s0-.1,0-.13c0-.06,0-.13-.03-.2-.06-.27-.27-.54-.5-.78-.48-.49-1.09-.89-1.69-1.26-1.21-.73-2.42-1.34-3.49-2.04-.27-.18-.52-.36-.76-.56-.12-.1-.23-.21-.34-.33l-.02-.02-2.67,2.37c-1.26,1.12-4.08,1.65-5.12,1.81,.02,.32,.03,.63,.02,.94-.01,.63-.06,1.26-.18,1.9-.12,.64-.29,1.27-.56,1.89-.24,.55-.58,1.08-1.05,1.53,1.04,.75,3.21,2.52,3.21,4.34,0,1.37,.24,3.28,.39,4.36,.35-.38,.73-.75,1.12-1.11,.31-.26,.62-.55,.94-.77l.24-.18,.13-.1,.13-.08c.17-.11,.35-.23,.52-.34,.71-.43,1.47-.8,2.26-1.09,.79-.29,1.62-.52,2.45-.68,.83-.16,1.69-.26,2.49-.36l.28-.04,.15-.03,.08-.02h.04s.12-.1,.2-.24c.18-.29,.33-.66,.46-1.03,.25-.76,.44-1.55,.59-2.34,.31-1.59,.55-3.18,.66-4.71Z" fill="#fff"></path>
      <path d="M46.48,33.98c.11-.58,.18-1.18,.21-1.76,.01-.29,.01-.59,0-.87,0-.14-.02-.29-.03-.38,0,0-.06-.12-.14-.2-.35-.37-.83-.71-1.29-1.03-.46-.32-.93-.61-1.39-.89-.92-.56-1.8-1.08-2.61-1.57-.15-.09-.29-.18-.43-.27-.42,.72-1.91,3.1-3.96,3.83-1.64,.59-2.86,1-3.39,1.18,0,.07,0,.14,0,.21-.02,.22-.08,.46-.2,.67-.11,.22-.28,.39-.44,.53-.1,.08-.19,.16-.29,.23,.44,.61,1.32,1.93,2.03,3.58,.72,1.67,1.33,4.17,1.62,5.4,.71-.74,1.56-1.38,2.46-1.97,1-.66,2.08-1.27,3.18-1.85,.54-.29,1.09-.59,1.65-.88,.27-.15,.54-.3,.81-.46l.39-.24c.13-.08,.23-.15,.33-.24,.42-.34,.74-.83,.98-1.35,.24-.53,.4-1.11,.51-1.69Z" fill="#fff"></path>
      <path d="M76.2,42.12c.22-.31,.41-.65,.56-.99l.12-.28,.06-.13,.06-.14c.07-.18,.14-.37,.21-.55,.25-.74,.44-1.49,.39-2.19-.04-.7-.36-1.32-.85-1.85-.49-.54-1.08-1-1.66-1.47-.58-.47-1.14-.95-1.67-1.44-1.06-.97-1.99-2.01-2.59-3.15-.02-.03-.03-.06-.04-.09-.57,.63-1.84,1.82-3.69,2.32-2.05,.55-3.88,1.56-4.26,1.79-.11,1.35-.28,2.71-.54,4.09-.16,.82-.34,1.64-.61,2.46-.13,.4-.28,.79-.52,1.2,.9,.32,2.35,1.06,3.05,2.58,.62,1.34,.89,2.77,1,3.67,.14-.12,.28-.25,.42-.36,1.26-1.02,2.74-1.75,4.24-2.4,.75-.33,1.55-.62,2.34-.87,.79-.25,1.59-.46,2.28-.78,.7-.31,1.28-.77,1.71-1.4Z" fill="#fff"></path>
    </g>
  </g>
</svg>
