<?xml version="1.0" encoding="UTF-8"?>
<svg xmlns="http://www.w3.org/2000/svg" id="b" viewBox="0 0 35.03 18.27">
  <g id="c">
    <path d="M2.12,10.29c-.3-.07-.97-.15-1.08-.19-.11-.04-.56-.28-.71-.28S-.02,10.24,0,10.44c.02,.2,.43,.45,.59,.56,.17,.11,.54,.19,.54,.19,0,0,.56,.43,1.1,.78s1.63,.84,2.19,1.06c.56,.22,2.04,1.12,3.1,.72,.22,.24,1.54,.71,1.82,.74,.28,.04,.93,.08,.93,.08,0,0,.56,1.26,.97,1.73,.41,.46,1.17,1.12,1.17,1.12v-.28s.89,.78,1.47,1.02c.58,.24,.58,.04,.71-.04,.13-.07,.2-.26,.48-.37,.28-.11,.35-.06,.45-.37,.09-.32,.22-.43,.17-.65,.26-.15,.07-.45,.07-.45,0,0-.04-.11-.26-.28-.22-.17-1.37-.8-1.37-.8,0,0,.22-.09,.54-.13,.32-.04,.52-.09,.74-.19,.22-.09,.63-.22,.85-.24,.22-.02,.11-.17-.09-.19-.21-.02-1.3-.09-1.45-.11-.15-.02,.04-.2,.54-.2s1.28-.02,1.75-.09c.46-.07,.87-.06,1.12,.07,.24,.13,.41,.3,.6,.33,.19,.04,1.32,1.19,1.51,1.17,.19-.02,.41-.87,.43-.93,.02-.06,.67,.32,1.15,.43,.48,.11,.93-.11,1.17,.04,.24,.15,.56,.3,1.15,.37,.6,.07,.93,.28,1.12,.19,.19-.09,.08-.3,.08-.3,0,0,.48,.21,.65,.07,.17-.13,.07-.48,.07-.48,0,0,.35,.22,.48,.09,.13-.13,.11-.39,.11-.39,0,0,.37,0,.46-.13,.09-.13-.04-.17-.04-.22s.15-.39,.21-.5c.05-.11-.17-.46-.17-.46l-.95-.3s.32-.04,.32-.15-.07-.19-.07-.19c0,0,.48,0,.52-.07,.04-.07-.28-.13-.28-.13l.19-.17h-.67s.09-.17,.02-.22c-.07-.06-.48,.04-.48,.04,0,0,.19-.24,.13-.24s-1.56,.07-1.56,.07c0,0-.5-.02-.3-.22,.2-.2,.65-.2,1.12-.2s1.36,.24,2.23-.02c.87,.41,2.88,.43,4.18,.61,1.3,.19,2.66,.45,2.84,.41,.19-.04-.13-.32-.13-.32,0,0,.37-.09,.43-.17,.05-.07-1.62-.5-1.62-.5,0,0,1.63,.09,1.71,.02,.07-.07,.09-.24-.02-.32,.24-.19,.19-.43,.07-.5-.11-.07-.97-.19-.97-.19,0,0,1.02-.02,1.1-.15,.07-.13-.06-.39,.07-.54,.13-.15-.04-.58-.32-.69-.28-.11-.41-.13-.41-.13,0,0,.46-.04,.48-.15,.02-.11-.11-.07-.13-.37-.02-.3-.54-.63-.87-.71,.37-.02,.61-.06,.61-.15s-.13-.59-.17-.65c-.04-.06-.61,.13-.61,.13l.2-.22s-.91-.13-1.34-.05c-.43,.07-3.77,.67-4.22,.74-.45,.07-.72,.2-.72,.2,0,0-1.21,.19-1.69,.11-.48-.07-1.02-.24-1.02-.24,0,0,1.47-.2,1.8-.39,.33-.19,.82-.35,.82-.35l-.22-.13s0-.19,.28-.22c.28-.04,.72-.45,.72-.45l-1.51,.15s.76-.26,.97-.39c.2-.13,.61-.3,.69-.35,.07-.06-.12-.21-.12-.21,0,0,.1-.09,.12-.2,.02-.11-.31-.16-.27-.2s.11-.1,.09-.19c-.02-.09-.56-.06-.56-.06,0,0,.2-.11,.19-.17-.01-.06-.43,.05-.43,.05,0,0,.5-.35,.48-.43-.01-.09-.32-.12-.32-.12,0,0-.09-.1-.09-.13s-.21,.02-.21,.02c0,0,0-.14-.06-.19-.06-.05-.61,.04-.61,.04l.17-.2s-.16-.1-.31-.11c-.15-.01-.6,.14-.6,.14,0,0,.3-.25,.27-.29-.03-.04-.87,.06-.87,.06,0,0,.3-.16,.28-.24-.01-.07-.26,.04-.26,.04l.1-.15-.51,.04s.23-.1,.26-.17-.84-.03-1.05,.06c-.21,.09-.37,.15-.48,.12-.11-.03-.25-.07-.25-.07l.61-.42-.55,.03s-.26-.1-.51-.1-.33,.07-.61-.02c-.27-.1-.9,.11-1.15,.14-.25,.03-.41-.1-.48-.25-.07-.15-.37,.27-.61,.29-.24,.01-.37-.17-.41-.36-.04-.19-.36,.1-.57,.24-.21,.14-.26,.12-.32-.11-.06-.24-.07-.37-.22-.36-.15,.01-.69,.48-.79,.54-.1,.06-.38-.01-.38-.22s.2-.51,.22-.61c.02-.1-1.07,.74-1.07,.74,0,0-.26-.3,.1-.64,.36-.35,.56-.43,.5-.51-.06-.07-.58,.24-.77,.31-.19,.07-.53,.53-.61,.62-.07,.09-.28,0-.2-.31,.06-.23,.07-.48,.11-.72,.02-.18,.04-.47,.21-.58,.08-.04,.14-.03,.23-.07,.03-.14-.13-.19-.24-.17-.16,.03-.26,.21-.37,.31-.11,.1-.21,.2-.31,.31-.19,.2-.36,.4-.55,.59-.11,.11-.4,.62-.4,.54s-.3-.56-.31-.94c-.01-.38,.25-.87,.27-.92,.02-.05,.2-.1,.25-.21,.05-.11-.01-.27-.19-.2-.17,.07-.86,.89-.95,1-.1,.11-.21,.54-.29,.62s-.32,.51-.38,.62c-.06,.11-.21,.3-.28,.35-.07,.05-.21,.17-.24,.12-.03-.05-.37-.21-.31-.41,.06-.2,.01-.79,.07-.88,.06-.09,.21-.15,.24-.21,.02-.06-.05-.15-.17-.14-.12,.01-.89,1.35-1.09,2.89-.64,0-3.43,.83-4.35,1.19-.92,.36-2.54,1.41-3.17,1.8-.63,.38-1.91,1.51-1.93,1.64-.27-.09-.52,.3-.27,.61,.25,.31,1.07,1.08,1.07,1.08Z" fill="#fff"></path>
  </g>
</svg>
