<?xml version="1.0" encoding="UTF-8"?>
<svg xmlns="http://www.w3.org/2000/svg" id="b" viewBox="0 0 110 59.66">
  <g id="c">
    <path d="M109.98,31.51c-.22-6.13-2.98-12.49-3.31-14.56-.25-1.55-7.73,5.88-14.12,7.99v.07s-.89,.28-2.5,.59c-.81,.15-1.8,.33-2.95,.43-1.15,.1-2.46,.18-3.91,.02-.73-.09-1.48-.23-2.26-.54-.2-.09-.42-.18-.57-.28l-.13-.07-.09-.05-.07-.04-.27-.17c-.34-.25-.67-.51-.98-.8-1.24-1.15-2.28-2.53-3.34-3.93-2.07-2.83-4.18-5.89-6.9-8.37-.33-.3-.69-.62-1.04-.9-.34-.28-.71-.52-1.1-.75-.77-.45-1.6-.79-2.45-1.07-1.71-.55-3.49-.82-5.21-.96-1.73-.14-3.41-.15-5.01-.1-1.6,.05-3.11,.16-4.5,.3-2.78,.28-5.09,.67-6.69,.97-1.61,.3-2.51,.52-2.51,.52l-.03-.13s.9-.25,2.5-.6c1.6-.35,3.9-.82,6.69-1.2,2.79-.37,6.07-.69,9.62-.5,1.77,.1,3.6,.33,5.42,.86,.91,.27,1.81,.61,2.66,1.08,.42,.24,.84,.49,1.24,.8,.39,.3,.74,.58,1.11,.9,2.9,2.49,5.24,5.52,7.33,8.32,1.03,1.41,2.03,2.76,3.1,3.86,.54,.54,1.09,1.01,1.69,1.29,.62,.29,1.3,.46,1.96,.58,1.33,.24,2.61,.27,3.73,.26,.33,0,.65-.02,.96-.03-.43-.13-.85-.31-1.24-.56-6.3-4.14-12.57-21.97-18.23-23.71C52.3-3.96,32.75,10.73,24.13,16.94s-5.97,19.54-13.92,21.01c-7.96,1.47-9.52,3.77-9.52,3.77-3.2,4.64,5.54,4.7,11.18,5.37,5.64,.66,13.25,8.7,29.83,11.96,11.8,2.32,36.79-2.35,39.45-6.13,2.36-3.36,3.26-12.87,6.45-15.42-.79-.09-1.65-.14-2.55-.08-.6,.05-1.23,.12-1.82,.31-.32,.11-.52,.18-.85,.38-.24,.16-.54,.36-.8,.57-1.07,.86-2.09,1.98-3.13,3.16-1.03,1.19-2.11,2.43-3.23,3.68-1.13,1.24-2.31,2.49-3.55,3.67-.62,.58-1.27,1.19-1.92,1.72-.61,.54-1.38,1.11-2.14,1.51-1.54,.81-3.17,1.27-4.74,1.62-3.16,.67-6.15,.84-8.7,.9-2.55,.05-4.68-.03-6.16-.11-1.48-.08-2.33-.16-2.33-.16v-.13s.86,.05,2.34,.07c1.48,.02,3.6,.01,6.13-.14,1.27-.08,2.63-.2,4.07-.39,1.44-.19,2.94-.43,4.47-.81,1.52-.39,3.07-.88,4.46-1.68,.71-.4,1.29-.86,1.93-1.45,.64-.56,1.22-1.13,1.81-1.74,1.17-1.2,2.28-2.46,3.35-3.73,1.08-1.26,2.1-2.55,3.19-3.73,1.07-1.19,2.17-2.32,3.42-3.23,.32-.23,.63-.42,1-.62,.28-.15,.74-.32,1.08-.41,.73-.18,1.43-.24,2.1-.23,1.33,.03,2.5,.24,3.53,.48,.04,0,.07,.02,.11,.03,.08-.02,.17-.05,.25-.06,4.31-.66,18.42,7.54,19.41,7.54s1.82-8.57,1.66-12.93Zm-89.95,6.13c-1.96,0-1.85-2.1-.86-3.2,0,0,1.77-1.04,2.21,.53s-.02,2.67-1.35,2.68Zm2.12,.99s2.43-1.6,1.55-3.67c-.88-2.07-3.54-2.52-4.53-2.3,0,0,3.98-3.09,5.97,0,1.99,3.09-.66,5.64-2.98,5.97Zm13.09,4.14c-4.16,6.96-9.8,3.98-9.8,3.98,0,0,5.97-1.33,8.62-6.3,2.65-4.97,0-10.58,0-10.58,0,0,5.34,5.94,1.18,12.9Z" fill="#ffffff"></path>
  </g>
</svg>
