<?xml version="1.0" encoding="UTF-8"?>
<svg xmlns="http://www.w3.org/2000/svg" id="b" viewBox="0 0 110 54.1">
  <g id="c">
    <g>
      <path d="M99.3,7.67c-4.24,.61-5.45,4.04-5.45,4.04,0,0-1.41-4.44-6.46-6.26-5.05-1.82-7.67-5.45-7.67-5.45,0,0-1.93,3.89,1.82,10.91,3.23,6.06,4.85,3.84,7.88,8.46,3.03,4.62,.81,6.28-2.63,8.1-.97,.51-2.6,.99-4.62,1.36,0,0-4.63,.57-9.72-.75-5.1-1.32-12.25-4.34-12.25-4.34l-3.82,2.57c-10.51-2.31-26.67-4.87-35.42-6.3-11.11-1.82-19.79,.4-20.8,5.45s4.04,20.2,4.04,20.2c.49,1.55,2.48,2.1,4.42,2.25-1.59,.14-2.84,.41-2,.98,1.45,.96,25.62,1.42,41.76,.75,.94,1.33,2.21,2.65,3.89,3.49,4.44,2.22,11.31,0,11.31,0,0,0-1.21-.4-5.25-3.18-.43-.3-.91-.58-1.43-.86,.66-.06,1.27-.13,1.83-.2,12.52-1.62,30.26-.99,35.95-10.1,3.03-4.85,2.93-15.73,3.64-17.97,1.01-3.23,6.46-5.25,8.89-7.47,2.42-2.22,2.83-10.91,2.83-10.91,0,0-6.46,4.65-10.7,5.25ZM26.79,40.59c-.61,1.82-3.58,1.51-2.36-.6,.4-.7,2.97-1.22,2.36,.6Z" fill="#fff"></path>
      <path d="M24.88,39.87s-.72,1.11,0,1.46c.72,.35,1.54-.49,1.45-1.46-.09-.97-1.45,0-1.45,0Z" fill="#fff"></path>
    </g>
  </g>
</svg>
