<?xml version="1.0" encoding="UTF-8"?>
<svg xmlns="http://www.w3.org/2000/svg" id="b" viewBox="0 0 128.01 46.6">
  <g id="c">
    <path d="M22.44,30.73s4.72,.89,9.87,1.45c.73,.08,1.59,.16,2.53,.25,.79,1.18,1.98,3.96,3.6,6.98,1.82,3.41,6.65,7.48,8.06,7.18,1.41-.29,0-3.53-1-5.53-1.02-2.04-2-4.47-1.53-5.65,.46-1.15,1.77-1.12,1.87-2.12,2.89,.18,5.45,.29,6.93,.25,3.9-.08,10.64-.21,18.43-1.18,1.45,.39,2.89,.93,3.64,1.37,1.09,.63,2.47,1.76,2.89,1.36,.43-.4,.63-1.34,1.3-1.85,.67-.51,1.03-.84,1.13-1.35,.07-.35-.46-.72-.93-.97,2.63-.6,5.15-1.28,7.73-1.94,1.12-.06,2,.08,2.81,.61,1.21,.8,3.56,2.58,4.48,2.39,.92-.19,.09-1.38,.27-2.09,.17-.71,2.08-1.96,2.2-2.4,.1-.23-1.52-.17-2.91-.1,5.98-1.12,8.67-.5,9.84-.35,1.28,.17,3.4,1.57,6.85,3.06,3.45,1.49,7.51,2.15,8.4,2.09,.89-.06,.58-.83,.06-1.47-.51-.64-3.89-4.53-4.79-5.55-.89-1.02-1.15-1.85-.38-3,0,0,6.32-7.6,7.66-9,1.34-1.4,.77-1.92,.77-1.92,0,0,1.91,.38,2.17-.38,.59-1.78,3.38-3.13,3.57-3.96,.19-.83-1.53-.83-6.89,1.15-5.36,1.98-13.21,8.43-16.45,11.15-3.23,2.72-5.36,2.64-10.55,1.87-.68-.1-1.53-.24-2.49-.4,.7-.05,1.92-.19,1.92-.4,0-.29-.8-.38-1.32-.69-.45-.26-.48-.84-.63-1.39-.15-.54-.13-1.22-.6-1.43-.48-.22-1.89,.51-3.38,1.52-1.24,.84-2.01,1.05-2.96,1.14-5.81-1.09-12.42-2.42-16.15-3.28-3.12-.73-7.03-1.89-11.79-2.72,.1-.01,.19-.01,.26,0,.81,.08,1.49-.43,1.66-.55,.17-.13,.21-.68-.38-1.23-.87-.82-1.49-1.56-1.6-3.32-.11-1.76,.4-4.69,1.56-6.44,1.17-1.76-.55-2.45-2.69-1.28-2.15,1.17-5.01,4.46-7.18,7.37-2.04,2.74-2.44,3.78-4.24,4.48-1.33,.03-2.69,.09-4.11,.21-13.02,1.11-22.3,3.49-27.06,4.68-2.9,.62-9,1.48-10.79,1.89-1.79,.41-2.39,.99-2.01,1.28,.38,.29,3.89,3.29,4.34,3.35,.45,.06,4.4,1.34,4.4,1.34,0,0-1.53,.03-2.04,0-.51-.03-.57,.57,.67,1.12,1.25,.54,8.69,3.59,14.96,4.43Z" fill="#fff"></path>
  </g>
</svg>
