<?xml version="1.0" encoding="UTF-8"?>
<svg xmlns="http://www.w3.org/2000/svg" id="b" viewBox="0 0 110 80.57">
  <g id="c">
    <path d="M80.39,33.92c5.59,3.73,13.61,4.47,20.7,1.86,7.08-2.61,10.03-8.39,8.54-15.1-1.49-6.71-8.35-9.14-12.08-7.64-3.73,1.49-4.4,8.04,0,10.44,6.15,3.36,4.85-2.61,4.85-2.61-.85,3.07-4.47,.37-4.47-2.24s3.73-2.98,7.08,.75c3.36,3.73-1.49,10.81-5.59,13.05-4.1,2.24-13.05-1.12-18.27-5.97-5.22-4.85-10.81-13.05-14.92-15.29-4.1-2.24-10.44-4.85-10.44-4.85,0,0,.56-1.23-.61-3.56-1.68-3.36-5.36-3.15-15.43-2.03-10.07,1.12-20.05,8.32-23.12,11.19-2.2,2.05-5.19,4.31-5.97,6.34-.5,1.31,.37,2.61,4.47,3.36,4.1,.75,7.08,2.98,11.93,3.73,3.78,.58,10.98,.48,13.95,.41-.68,1.59-1.53,3.44-2.39,4.81-.91,1.46-3.29,3.29-5.48,4.77-.45,.17-.88,.34-1.27,.5-1.07-.77-4.22-2.66-9.27-2.66-6.34,0-11.93,4.1-16.41,4.1s-2.61-4.47-2.61-4.47c0,0-4.85,5.59,0,7.61s8.02-1.78,13.24-2.15c2.39-.17,6-.22,9.26,.99-2.32,1.73-4.6,3.62-4.6,3.62-4.1,3.36-6.71,16.03-9.32,18.27-2.61,2.24-7.46,6.34-8.2,1.86-.75-4.47,2.24-4.47,2.24-4.47,0,0,1.12-3.73-1.49-3.73S-1.28,61.14,.49,65.06c1.86,4.1,5.31,4.66,10.16,2.05,4.85-2.61,6.34-8.95,10.07-14.54,1.9-2.85,7.27-5.52,12.24-7.67,.49-.22,1.59-.5,2.92-.85,.43,.23,.84,.47,1.25,.69,5.97,3.36,8.2,.37,8.2,.37,0,0,1.12,4.85-2.98,12.31-1.37,2.49-7.46,7.08-9.7,10.44s-3.73,5.97-1.49,10.44c2.24,4.47,9.88,1.87,10.81-3.73,.34-2.01,.05-4.11-.6-5.73,.2-.07,.41-.15,.6-.24,3.36-1.49,8.2-6.34,10.81-11.56,2.61-5.22,1.86-15.66,2.98-17.15,1.12-1.49,3.36-2.98,7.08,1.12,3.73,4.1,2.24,8.95,.37,21.63-1.86,12.68,6.53,14.54,11,14.54s8.39-6.71,4.66-10.44c-3.73-3.73-6.34,2.24-6.34,2.24,0,0,4.1-2.61,3.73,1.49-.37,4.1-5.22,2.98-7.83,0-2.61-2.98,2.24-10.81,4.1-17.9,1.86-7.08-1.49-12.31-1.49-12.31,0,0,3.14,0,4.1,.37,21.07,8.2,23.79,22.46,29.81,15.08,2.26-2.77-3.71-6.87-3.71-6.87,0,0,1.68,3.54,.39,4.04-1.47,.57-4.16-1.39-5.24-3.11-.22-.36-8.16-7.68-13.38-9.92-5.22-2.24-9.74-4.43-11.97-6.3-2.24-1.86-4.85-6.71-4.85-6.71,0,0,.29-1.45,3.73,0,3.99,1.68,4.85,3.36,10.44,7.08Zm-42.51,42.14c-1.86,2.24-5.43-1.28-3.73-3.73,1.39-2.01,1.94-2.31,4.22-2.74,.38,2.05,.68,5.07-.49,6.47ZM52.79,6.89c-.75,.19-2.42-.75-2.98-2.05,0,0,.93-2.61,2.98-1.31,2.05,1.31,.75,3.17,0,3.36Z" fill="#fff"></path>
  </g>
</svg>
