<?xml version="1.0" encoding="UTF-8"?>
<svg xmlns="http://www.w3.org/2000/svg" id="b" viewBox="0 0 256.4 124.7">
  <g id="c">
    <path d="M249.99,45.07c-.83-.02-1.66-.09-2.49-.17-.34-.03-.68-.07-1.02-.11-1.53-.17-3.06-.38-4.58-.53-.22-.02-.44-.05-.67-.07-.69-.06-1.36-.12-2.04-.2h0c-.97-.11-1.94-.23-2.91-.42-1.04-.2-2.35-.55-3.58-.6-.06-.09-.13-.18-.19-.28,.07-.33,.12-.67,.16-1.01,.25-2.09,.05-4.37-.1-6.27-.22-2.73-.11-5.4,.1-8.12,.01-.15,.03-.3,.06-.47,.16-1.06,.53-2.43,.27-3.34-.25-.9-.63-1.1-1.06-.91-1.2,.55-2.78,4.17-3,4.55-.73,1.26-1.4,2.55-2.04,3.85h0c-.41,.82-.82,1.65-1.22,2.48h0c-.4,.84-.81,1.68-1.22,2.51-.08,.17-.17,.34-.26,.5-.8,1.57-1.7,3.09-2.63,4.57-.47,.75-.92,1.5-1.36,2.24h0c-.23,.39-.46,.77-.68,1.15h0c-.59,.97-1.18,1.93-1.81,2.86h0c-.15,.23-.31,.45-.47,.67h0c-.58,.33-1.16,.67-1.73,1.01-2.02,1.2-3.94,2.46-5.38,3.39,.28,.15,.48,.44,.49,.86,0,1.31-1.9,1.33-1.99,.09-.1,.06-.19,.11-.28,.16-.08,.05-.16,.09-.23,.13-.9,.49-1.8,.97-2.7,1.44-.84,.44-1.69,.87-2.54,1.29-.07,.03-.13,.07-.2,.1,.11,.02,.23,.05,.33,.11,.25,.13,.44,.37,.49,.7l.02,.17c0,1.33-1.99,1.34-2,0,0-.09,.01-.18,.03-.25,.02-.08,.04-.15,.07-.21-.22,.11-.45,.21-.67,.31h0c-.78,.37-1.56,.73-2.33,1.09-.89,.4-1.78,.8-2.68,1.18,.28,.15,.47,.44,.47,.86,0,.33-.12,.58-.31,.75-.53,.48-1.58,.27-1.68-.62l-.1-.04,.1,.04v-.13c-.02-.08,0-.17,0-.24-.16,.06-.32,.13-.48,.19h0c-1.76,.71-3.53,1.38-5.33,1.98,.02,.44,.03,.88,.03,1.32,.58-.21,1.36,.1,1.37,.93,0,.87-.84,1.17-1.43,.91h0c-.32-.14-.57-.44-.57-.9,0-.5,.28-.81,.63-.94,0-.44,0-.88-.03-1.32h0c-.48,.16-.96,.32-1.44,.47,.15,1.22,.25,2.44,.28,3.68-.03-1.24-.13-2.47-.28-3.68-.34,.11-.68,.22-1.02,.33,.17,.17,.29,.4,.29,.72,0,1.33-1.99,1.34-2,0,0-.08,0-.16,.02-.22-.39,.12-.79,.22-1.18,.32-1.15,.31-2.3,.61-3.46,.87-.7,.16-1.4,.3-2.09,.44-.7,.13-1.39,.25-2.08,.36l.03,.07c.06,.12,.09,.25,.09,.39,0,.09,0,.17,0,.25,0,.19-.04,.36-.13,.52-.06,.07-.11,.14-.16,.21-.13,.13-.27,.21-.44,.26-.09,.01-.18,.03-.26,.04-.14,0-.26-.02-.39-.08-.12-.05-.23-.11-.32-.21-.1-.1-.17-.21-.21-.33-.06-.12-.09-.25-.09-.4,0-.08,0-.16,0-.25,0-.06,0-.13,.02-.2-6.45,.86-12.83,.76-19.1-.1h0c.26,.15,.44,.43,.44,.84,0,1.33-1.99,1.33-2,0,0-.54,.33-.86,.72-.96-2.49-.37-4.96-.85-7.41-1.44-1.84-.44-3.67-.94-5.49-1.49l-.13-.04h0c-.55-.17-1.11-.34-1.66-.52-1.22-.4-2.43-.81-3.64-1.25-1.2-.44-2.39-.9-3.58-1.37-1.19-.48-2.37-.98-3.55-1.49-2.36-1.03-4.69-2.14-7.01-3.31-1.74-.88-3.46-1.78-5.17-2.72-1.14-.63-2.27-1.26-3.4-1.91-2.38-1.37-4.74-2.8-7.07-4.26-.77-.48-1.53-.97-2.29-1.46h0c-1.84-1.18-3.66-2.38-5.46-3.59-.72-2.17-.97-4.51-.62-6.8,.73-4.87,3.79-9.08,7.73-11.73,.99-.66,2.07-1.28,3.19-1.77,1.04-.45,2.12-.78,3.21-.93,1.69-.22,5.23,.58,6.67-.37,1.18-.78,.88-1.6,.16-2.27,0,.06,.02,.12,.02,.19,0,1.33-1.99,1.34-2,0,0-.62,.42-.95,.88-.99-.12-.06-.24-.13-.35-.19-1.88-1.01-3.93-1.73-6.08-2.21-1.41-.32-2.87-.53-4.34-.66h0c-1.23-.11-2.46-.16-3.7-.16-3.8,.01-7.59,.5-10.98,1.21-3.44,.71-6.82,1.79-10.05,3.2,.12,.16,.2,.37,.2,.63,0,1.26-1.8,1.33-1.98,.19-.43,.21-.85,.42-1.27,.64-1.19,.62-2.33,1.31-3.43,2.05,.24,.16,.4,.43,.4,.82,0,1.24-1.72,1.33-1.96,.27-.36,.25-.7,.5-1.05,.76-2.96-2.16-5.92-4.3-8.9-6.41-.48-.34-.96-.69-1.45-1.03-.07-.05-.14-.1-.21-.15-.03,.49-.09,.97-.19,1.43h.05c.07-.01,.13,0,.19,.03,.06,.02,.12,.06,.16,.11,.08,.08,.16,.16,.24,.24,.06,.06,.11,.14,.13,.23l.02,.14c0,.09-.02,.18-.07,.26l-.08,.1c-.04,.05-.1,.09-.16,.11-.06,.03-.12,.05-.19,.04-.07,0-.13-.01-.19-.04-.06-.02-.12-.06-.16-.11-.07-.07-.14-.15-.22-.22-.12,.3-.27,.58-.46,.85-.62,.96-1.68,1.63-2.84,2.17,1.17-.53,2.22-1.21,2.84-2.17,.19-.27,.34-.55,.46-.85l-.02-.02c-.06-.06-.11-.14-.13-.23l-.02-.14c0-.09,.02-.18,.07-.26l.08-.1c.04-.05,.1-.09,.16-.11l.15-.03c.11-.46,.17-.94,.19-1.43-4.1-2.89-8.22-5.87-12.48-8.53-.29,1.35-2.46,1.24-2.47-.3,0-.42,.16-.74,.4-.95-.56-.33-1.11-.65-1.68-.96C41.3,1.78,36.25-.11,31.09,0c-.64,.01-1.27,.07-1.9,.14-.53,.06-1.05,.14-1.57,.24l-.17,.04-.12,.02c-.57,.12-1.15,.26-1.71,.42h0c-3.46,1-6.71,2.83-9.65,5.22l-.06,.05-.03,.02c-.78,.64-1.54,1.31-2.27,2.03-.76,.74-1.5,1.52-2.21,2.32-.09,.1-.17,.21-.26,.31h0c-.34,.4-.68,.8-1.01,1.21,.8,.64,1.56,1.32,2.28,2.05,.04-.54,.42-.84,.84-.9,.54-.07,1.15,.25,1.15,.98,0,.12-.02,.23-.05,.33-.13,.44-.53,.67-.94,.67-.5,0-1.01-.33-1.01-1v-.09c-.71-.73-1.47-1.41-2.27-2.05-.6,.75-1.19,1.52-1.75,2.31-.63,.89-1.22,1.8-1.79,2.74-.28,.47-.56,.94-.83,1.41-.53,.95-1.04,1.91-1.51,2.88-.7,1.46-1.33,2.94-1.87,4.42-1.09,2.97-1.84,5.94-2.21,8.78-.05,.37-.08,.73-.11,1.1-.01,.13-.02,.26-.02,.4-.01,.2-.02,.4-.03,.6,0,.27,0,.53,0,.8H0c0,.38,.02,.75,.05,1.13-.02-.35-.04-.69-.05-1.04,0,.35,.03,.7,.05,1.04H.05c.01,.25,.01,.5,.03,.75h0l.02-.06c1.05,11.85,11.67,21.65,22.1,28.69,3.16,2.14,6.29,4.02,9.14,5.63,.75,.42,1.48,.83,2.18,1.22,3.01,1.66,6.07,3.22,9.16,4.71,.65,.31,1.3,.62,1.95,.93,.88,.41,1.77,.82,2.65,1.22h0c.53,.24,1.07,.46,1.6,.7,.54-.19,1.08-.37,1.63-.5,.49-.05,.99-.09,1.48-.14,.28-1.12,1.9-1.19,2.34-.2,.07,.16,.11,.34,.11,.55,0,1.66-2.49,1.67-2.5,0,0-.13,.02-.24,.05-.35-.49,.05-.99,.09-1.48,.14-.55,.14-1.09,.31-1.63,.5h0c-.53-.23-1.07-.46-1.6-.7h0c.04,.17,.08,.35,.12,.52,.06,.23,.11,.46,.17,.69h0c.12-.05,.25-.09,.37-.14-.12,.05-.25,.09-.37,.14,.02,.1,.05,.2,.07,.29,1.2,4.81,2.71,10.11,4.69,15.32,3.27,8.59,7.85,16.9,14.56,22.22,1,.79,2.04,1.51,3.13,2.16,.07,.04,.15,.09,.23,.13,.21,.13,.42,.25,.64,.37,.45,.25,.92,.48,1.39,.71,1.25,.59,2.55,1.21,3.25-.43,.13-.31,.17-.61,.15-.92-.01-.16-.04-.31-.08-.47-.07-.26-.18-.51-.31-.77-.43-.83-1.08-1.63-1.43-2.35-1.15-2.39-1.95-5.78-2.19-9.34-.19-2.88-.02-5.89,.63-8.59,.98-4.08,3.04-7.47,6.59-8.71h0c1.22,.3,2.45,.57,3.67,.84,.55,.12,1.1,.24,1.65,.36,.92,.19,1.85,.36,2.77,.53h0c.82,.15,1.64,.3,2.46,.44,.94,.16,1.88,.32,2.83,.46h0c2.95,.45,5.91,.82,8.89,1.09-.13-.21-.2-.47-.2-.78,0-2,2.99-2,2.99,0,0,.41-.13,.74-.34,.99,4.4,.35,8.82,.51,13.24,.48-.11-.11-.2-.24-.28-.39h0c-.13-.24-.21-.52-.21-.86,0-1.34,1.16-1.91,2.14-1.71,.72,.15,1.35,.71,1.36,1.69,0,.11-.01,.22-.03,.32h0c-.06,.37-.21,.67-.43,.91,.37,0,.73-.02,1.1-.03-.21-.26-.41-.53-.61-.78l-.03-.05,.03,.05c.2,.26,.4,.52,.61,.78,.66-.02,1.31-.04,1.97-.06,.33-.01,.65-.03,.98-.05,2.42-.11,4.85-.28,7.26-.5-.22-.28-.36-.64-.36-1.09-.01-2.33,3.48-2.34,3.49-.01,0,.32-.06,.58-.17,.81,3.85-.44,7.68-1,11.49-1.71h.01c-.46-.21-.82-.65-.82-1.34,0-2,2.99-2,3,0,0,.42-.13,.74-.34,.98h.01c2.46-.49,4.9-1.04,7.34-1.64,.48-.12,.96-.24,1.43-.36,.09-.02,.18-.04,.27-.07,1.18-.31,2.35-.62,3.52-.96-.31-.25-.54-.64-.53-1.17,0-2,2.99-2,2.99,0,0,.18-.03,.33-.06,.47,2.99-.91,5.96-1.91,8.89-2.99-.12-.19-.19-.41-.19-.69,0-1.61,2.32-1.67,2.49-.17,3.53-1.37,6.99-2.87,10.41-4.51-.63,.02-1.27-.4-1.28-1.24,0-1.66,2.49-1.67,2.5,0,0,.32-.09,.57-.24,.77,.31-.15,.62-.31,.94-.47,.39-.19,.77-.38,1.16-.58,3.04-1.53,6.02-3.17,8.95-4.92-.52-.09-.98-.5-.98-1.21,0-1.67,2.49-1.67,2.5,0,0,.12-.02,.23-.03,.33,5.85-3.59,11.46-7.61,16.78-12.05,.17-.14,.34-.28,.51-.42,.29-.24,.62-.52,.98-.82-.26-.14-.47-.38-.56-.71-.03-.11-.05-.23-.05-.36,0-.14,.02-.26,.05-.38,.31-1.14,2.03-1.16,2.38-.06,1.68-1.4,3.62-3.12,5.32-4.92,.1-.02,.19-.05,.29-.07,1.78-.5,3.7-.76,5.53-.97,3.45-.39,6.88-.9,10.3-1.42h0c.28-.04,.56-.08,.84-.13,.2-.03,.39-.06,.59-.09,.78-.12,1.55-.28,2.32-.45h0c.64-.14,1.27-.3,1.9-.47h0c.69-.19,1.39-.39,2.07-.6,1.83-.57,3.55-1.54,5.39-2.06,1.19-.33,3.4-.98,4.31-1.9,1.9-1.92-5.17-1.46-6.09-1.48ZM111.75,17.54c.28-1,1.92-.91,1.95,.28v.03c0,.26-.07,.47-.2,.63h0c-.31,.4-.9,.48-1.32,.24h0c-.27-.15-.48-.44-.48-.86,0-.11,.02-.21,.04-.31Zm-1.38-2.88c0,1.33-1.99,1.33-2,0,0-1.33,1.99-1.33,2,0Zm-2.24,4.79c0,1.33-1.99,1.33-2,0,0-1.33,1.99-1.33,2,0Zm-4.72-5.57c.58-.44,1.62-.18,1.63,.79,0,.38-.16,.64-.39,.81-.58,.41-1.6,.15-1.61-.8,0-.37,.15-.63,.37-.79Zm-.49,8.4c0,1.33-1.99,1.33-2,0,0-1.33,1.99-1.33,2,0Zm-3.7-6.74c0,1.33-1.99,1.33-2,0,0-1.33,1.99-1.33,2,0Zm-25.02,108.46c0,.67-1,.67-1,0,0-.67,1-.67,1,0ZM217.26,53.67c0,1.15-1.18,1.51-1.92,1.07,.58-.59,1.15-1.19,1.7-1.81,.13,.19,.22,.44,.22,.73Zm-8.32,5.85c2.25-1.48,4.4-3.08,6.32-4.84-.29-.2-.49-.54-.5-1.01,0-1.36,1.66-1.61,2.27-.75,.1-.1,.2-.21,.3-.31h0c-.1,.11-.2,.21-.3,.31-.57,.6-1.16,1.19-1.78,1.76-1.92,1.76-4.07,3.36-6.32,4.84-.16,.11-.32,.22-.49,.32,.05,0,.1,0,.15,0-.05,0-.1,0-.15,0-.51,.33-1.02,.65-1.53,.96-.26-.21-.44-.53-.44-.97v-.15c.15-1.41,2.18-1.47,2.46-.16Zm-4.11,3.77h0l1.1,.1c.53,.02,1.06,0,1.59,0-.53,0-1.06,.02-1.59,0l-1.1-.1c-1.65,1.08-3.35,2.08-5.08,3.03,1.73-.95,3.43-1.95,5.08-3.03Zm-2.32-3.55s.06,.07,.08,.1c-.03-.03-.06-.07-.08-.1-.31-.41-.59-.81-.84-1.22,.26,.41,.54,.81,.84,1.22Zm-.36,.1c.21,.08,.42,.16,.63,.23h0c-.21-.08-.42-.15-.63-.23-.6-.23-1.19-.48-1.78-.74,.59,.26,1.18,.5,1.78,.74Zm-3.32,5.43c-.08,.04-.15,.08-.23,.12-.66,.34-1.33,.67-2,1.01-.04-.12-.07-.26-.07-.41,0-1.38,1.7-1.61,2.29-.71Zm-8.74,5.72h0c.1,.18,.17,.39,.17,.66,0,1.57-2.21,1.66-2.47,.28,.77-.3,1.53-.62,2.3-.94Zm-2.89,4.28h0Zm0,0c-.09,.06-.18,.12-.26,.18,.09-.06,.18-.12,.26-.18h0Zm.22-6.7c.03-.68,.04-1.37,.02-2.05h0c.02,.68,0,1.37-.02,2.05s-.08,1.37-.14,2.05h0c.07-.68,.12-1.36,.14-2.05Zm-.32,3.63c.15-.06,.3-.12,.45-.17-.15,.06-.3,.12-.45,.17-.27,.1-.54,.21-.8,.31,.27-.1,.54-.21,.8-.31Zm-4.69-5.19c0,1.33-1.99,1.33-2,0,0-1.33,1.99-1.33,2,0Zm-2.29,5.96c-.76,.17-1.53,.35-2.3,.54,.12-1.25,1.74-1.43,2.3-.54Zm-.82,1.91c.09-.03,.17-.05,.26-.07-.08,.03-.17,.06-.26,.07-.87,.26-1.75,.5-2.63,.74,.88-.24,1.76-.48,2.63-.74Zm-3.76-4.41c0,1.33-1.99,1.33-2,0,0-1.33,1.99-1.33,2,0Zm-10.43,2.24c0,1.33-1.99,1.33-2,0,0-1.33,1.99-1.33,2,0Zm1.41,5.17c.7-.13,1.39-.26,2.09-.4,1.81-.36,3.61-.75,5.4-1.18-1.79,.43-3.59,.83-5.4,1.18,.2,.21,.33,.49,.33,.86,0,1.66-2.49,1.67-2.5,0,0-.18,.03-.33,.08-.47-4.88,.89-9.78,1.52-14.5,1.93,4.71-.42,9.62-1.05,14.5-1.93Zm-11.24,3.2c0-2,2.99-2,3,0,0,2-2.99,2-3,0Zm-2.03-7.85c0,1.33-1.99,1.33-2,0,0-1.33,1.99-1.33,2,0Zm-11.18-9.06c0,1.33-1.99,1.33-2,0,0-.12,.02-.22,.05-.32,.05-.17,.13-.31,.25-.41h0c.55-.52,1.7-.28,1.7,.73Zm-1.63,7.86c0,1.66-2.49,1.67-2.5,0,0-1.66,2.49-1.67,2.5,0Zm-7.85-7.84c0,1.66-2.49,1.67-2.5,0,0-1.66,2.49-1.67,2.5,0Zm-3.29,6.39c0,.62-.29,1.05-.68,1.28-.51,0-1.02,.03-1.53,.05-.44-.22-.78-.66-.78-1.32,0-2,2.99-2,3,0Zm-6.91-9.8c0,2-2.99,2-3,0,0-2,2.99-2,3,0Zm-5.21,5.91c0,2-2.99,2-3,0,0-2,2.99-2,3,0Zm7.96,10.3c-4.42-.79-8.84-1.74-13.17-2.93,4.33,1.19,8.75,2.14,13.17,2.93Zm-13.68-23.3c0,2-2.99,2-3,0,0-2,2.99-2,3,0Zm-60.96-4.9c-.91-.82-1.86-1.61-2.85-2.34,.99,.73,1.93,1.52,2.85,2.34h0Zm-3.11-3.28c0-.67,1-.67,1,0,0,.67-1,.67-1,0Zm4.42,1.48c.17,1.22,.39,2.44,.67,3.65h0c-.28-1.21-.5-2.43-.67-3.65Zm-.12,4.28c-.4-.72-.76-1.47-1.08-2.23,.32,.76,.68,1.51,1.08,2.23Zm-1.03-2.33s.1,.09,.14,.13c.19,.18,.38,.36,.57,.53-.19-.18-.38-.36-.57-.53-.05-.04-.1-.09-.14-.13Zm2.03,3.93h0c-.22-.28-.37-.65-.37-1.11,0-.34,.08-.63,.21-.87l.07-.13c.82-1.26,3.21-.94,3.21,.99,0,.67-.29,1.15-.71,1.43h0c-.73,.5-1.84,.4-2.42-.31Zm6.71-29.49c0-1.33,1.99-1.33,2,0,0,1.33-1.99,1.33-2,0Zm1.75,5.03c0,.67-1,.67-1,0,0-.67,1-.67,1,0Zm-1.81,11.67c0,2.33-3.49,2.34-3.49,0,0-2.33,3.49-2.34,3.49,0Zm6.6,16.33c-.23,.41-.48,.81-.74,1.2-.26,.4-.53,.79-.81,1.18,.52,.32,.87,.9,.73,1.58h0c-.02,.12-.06,.25-.12,.38-.53,1.18-1.86,1.11-2.59,.44-.41,.43-.88,.81-1.33,1.19-.26,.2-.53,.38-.81,.56,.28-.17,.55-.36,.81-.56,.46-.38,.93-.76,1.33-1.19-.44-.41-.67-1.04-.34-1.76,.08-.18,.18-.32,.3-.45h0c.55-.6,1.4-.58,2.03-.19,.28-.39,.55-.78,.81-1.18,.26-.4,.51-.8,.74-1.2,.25-.43,.48-.86,.71-1.3-.23,.43-.46,.87-.71,1.3Zm9.01,9.53c-1.06,2.37-4.73,.72-3.67-1.65,1.06-2.37,4.73-.72,3.67,1.65Zm-2.54,19.96c.95,.38,1.9,.77,2.84,1.2,.35,.16,.68,.34,1.02,.51-.34-.17-.68-.35-1.02-.51-.94-.43-1.89-.83-2.84-1.2Zm-10.39-27.11h0c.07,.04,.14,.08,.21,.12-.07-.04-.14-.08-.21-.12-.6,.97-1.24,1.89-1.98,2.74,.74-.85,1.39-1.78,1.98-2.74h0Zm-4.45,5.28h0l-.1-.23h0l.1,.23Zm1.47,8.43c0,2-2.99,2-3,0,0-2,2.99-2,3,0Zm6.51,5.88c0-2,2.99-2,3,0,0,.74-.41,1.21-.94,1.4-.38,.14-.8,.13-1.17-.02-.5-.2-.89-.65-.89-1.37Zm-3.27,2.65h-.08c.48,.27,.95,.53,1.41,.8-.46-.27-.93-.53-1.41-.79h.08Zm8.4,4.2c-1.98-.78-3.9-1.57-5.69-2.62,1.79,1.05,3.71,1.84,5.69,2.62Zm-5.57-31.93c-.32-.19-.65-.38-.97-.57,.32,.19,.65,.38,.97,.57h0Zm-7.72,28.33c.28,.06,.56,.12,.83,.2-.28-.08-.56-.15-.83-.2-.25-.05-.5-.07-.75-.1,.25,.03,.5,.06,.75,.1Zm12.12,4.73c-1.65-.47-3.3-1.04-4.88-1.76,1.59,.72,3.24,1.29,4.88,1.76Zm8.96,2.79l.12-.22h0l-.12,.22c-.58-.25-1.16-.48-1.74-.69,.59,.21,1.17,.44,1.74,.69Zm-2.79-5.76c-.46-.24-.93-.46-1.4-.66-.48-.21-.96-.4-1.45-.58,.49,.18,.98,.37,1.45,.58,.48,.21,.95,.43,1.4,.66,.92,.47,1.8,1.01,2.64,1.58-.84-.57-1.72-1.11-2.64-1.58Zm3.25-1.24h0c-.85,.35-1.97,.05-2.34-.9-.08-.2-.13-.43-.13-.7,0-2.33,3.49-2.34,3.49,0,0,.83-.45,1.36-1.02,1.6Zm2.71-11.43c0-2.66,3.99-2.67,3.99,0,0,2.66-3.99,2.67-3.99,0Zm-1.23-5.59c-1.27-.42-2.55-.8-3.84-1.16,1.29,.36,2.57,.73,3.84,1.16,1.79,.6,3.52,1.33,5.22,2.13-1.7-.8-3.43-1.53-5.22-2.13Zm19.57,2.58h0c.28,.53,.57,1.06,.86,1.57-.3-.52-.59-1.04-.86-1.57Zm2.99,3.55c.99,.34,1.98,.67,2.98,1-1-.33-1.99-.66-2.98-1h0Zm.34,2.46c-.47-.89-.95-1.78-1.45-2.66-.02-.04-.04-.08-.06-.11,.02,.04,.04,.07,.06,.11,.5,.88,.98,1.77,1.45,2.66Zm-23.56-12.41c2.85,1.44,5.73,2.82,8.64,4.13,2.32,1.04,4.67,2.03,7.03,2.98-2.37-.95-4.71-1.94-7.03-2.98-2.91-1.31-5.79-2.69-8.64-4.13Zm13.04,9.64c-1.68-.91-3.36-1.81-5.06-2.67,1.7,.86,3.38,1.77,5.06,2.67Zm13.23-2.21l.29,1.22-.29-1.22c-.11-.46-.23-.92-.34-1.38,.11,.46,.23,.92,.34,1.38Zm-1.19-4.71v.15c.04,.16,.08,.33,.12,.49-.05-.16-.09-.33-.14-.49-.15,2.17-3.47,2.13-3.48-.15,0-1.8,2.07-2.21,3.02-1.24-.05-.15-.12-.29-.17-.44,.06,.15,.12,.29,.17,.44,.28,.29,.47,.69,.47,1.23Zm-4.14-5.35c-.19,.6-.38,1.2-.54,1.81,.16-.6,.34-1.2,.54-1.81,.21-.62,.42-1.25,.65-1.86h0c-.23,.62-.44,1.24-.65,1.86Zm1.93-14.04c0,1.66-2.49,1.67-2.5,0,0-1.66,2.49-1.67,2.5,0Zm-2.86,18.11c.04-.62,.16-1.24,.3-1.86-.15,.62-.26,1.24-.3,1.86-.12,1.37,.17,2.75,.72,4.07,.18,.44,.39,.88,.61,1.3,.89,.33,1.78,.67,2.67,1-.89-.33-1.78-.66-2.67-1h0c-.22-.43-.43-.86-.61-1.3-.55-1.32-.84-2.71-.72-4.07Zm-1.63-12.45c0,.2-.04,.38-.1,.53-.23,.55-.82,.78-1.36,.7h0c-.42-.07-.8-.33-.96-.78-.05-.13-.08-.28-.08-.45,0-.66,.39-1.05,.87-1.19,.72-.21,1.63,.18,1.63,1.19Zm-1.38-23.44c0,1.33-1.99,1.33-2,0,0-1.33,1.99-1.33,2,0Zm-3.09-9.65s-.05,.07-.08,.11c.03-.04,.05-.07,.08-.11h0Zm-.32,.42h0c.13,.06,.25,.15,.34,.27h0c.12,.16,.2,.36,.2,.62,0,.57-.37,.9-.79,.98-.33,.06-.69-.03-.94-.27-.16-.16-.27-.4-.27-.7,0-.88,.87-1.18,1.46-.89Zm-.36,15.87c0,1.67-2.49,1.67-2.5,0,0-1.67,2.49-1.67,2.5,0Zm-.74,24.68c0,2.33-3.49,2.34-3.49,0,0-2.33,3.49-2.34,3.49,0Zm-3.45-37.19c0,1.33-1.99,1.33-2,0,0-1.33,1.99-1.34,2,0Zm-2.03,20.42c.1,.03,.2,.08,.28,.15,.22,.16,.38,.43,.38,.79,0,.42-.19,.7-.46,.86-.48,.28-1.2,.14-1.45-.42-.06-.12-.09-.27-.09-.44,0-.82,.76-1.14,1.34-.95Zm-1.74-15.99c0,1.66-2.49,1.67-2.5,0,0-1.66,2.49-1.67,2.5,0Zm-2.74,27.68c-1.06,2.37-4.73,.72-3.67-1.65,1.06-2.37,4.73-.72,3.67,1.65Zm-2.57-20.92c0,2-2.99,2-3,0,0-2,2.99-2,3,0Zm-6.05,4.55c.55-.24,1.24-.17,1.7,.24,.27,.25,.46,.62,.46,1.11,0,.59-.26,1-.62,1.24-.79,.52-2.06,.25-2.32-.83-.03-.12-.05-.26-.05-.4,0-.7,.37-1.15,.84-1.36Zm-3.02,11.46c-.21,.48-.56,.75-.94,.86-.46,.13-.98,.03-1.39-.23-.61-.38-.98-1.11-.6-1.95,.56-1.24,2.01-1.1,2.71-.31,.22,.25,.36,.55,.38,.9,0,.23-.03,.47-.15,.73Zm-.08-22.12c0,1.66-2.49,1.67-2.5,0,0-1.66,2.49-1.67,2.5,0Zm-2.42-4.04c0,.67-1,.67-1,0,0-.67,1-.67,1,0Zm-2.06,10.44c0,2-2.99,2-3,0,0-2,2.99-2,3,0Zm-2.1-13.5c0,.67-1,.67-1,0,0-.67,1-.67,1,0Zm-6.18,1.94h0l-.05-.25h0l.05,.25Zm1.3-3.6c.02-.06,.05-.12,.1-.17,.05-.05,.1-.09,.16-.11,.06-.03,.12-.05,.19-.04h.12c.09,0,.17,.02,.25,.07l.1,.08c.06,.06,.11,.14,.13,.23l.02,.14c0,.07-.01,.14-.04,.2-.02,.06-.05,.12-.1,.17-.04,.05-.1,.09-.16,.11-.06,.03-.12,.05-.19,.05h-.12c-.09,0-.17-.02-.25-.07l-.1-.08c-.06-.06-.1-.14-.13-.23l-.02-.14c0-.07,.01-.14,.04-.2Zm-.83-3.24c0,.67-1,.67-1,0,0-.67,1-.67,1,0Zm-.98,14.73c0,2-2.99,2-3,0,0-2,2.99-2,3,0Zm-1.58,4.18c0,.67-1,.67-1,0,0-.67,1-.67,1,0Zm.09-12.77c0,.67-1,.67-1,0,0-.67,1-.67,1,0Zm-1.45-9.2c0,.67-1,.67-1,0,0-.67,1-.67,1,0Zm.75,3.56c0,1.33-1.99,1.33-2,0,0-1.33,1.99-1.33,2,0Zm-2.15,3.93c0,.67-1,.67-1,0,0-.67,1-.67,1,0Zm-1.07-7.24c0,1-1.5,1-1.5,0,0-1,1.5-1,1.5,0Zm-.58,9.7c0,.67-1,.67-1,0,0-.67,1-.67,1,0Zm-.4,18.87c.05,.08,.09,.17,.09,.28l-.02,.11c-.11,.54-.98,.51-.98-.11,0-.55,.67-.64,.91-.29Zm-1.46-9.07c-.17-.07-.3-.22-.3-.46,0-.56,.71-.65,.93-.26,.04,.07,.07,.15,.07,.25,0,.42-.4,.58-.7,.46Zm1.44-7.21c0,2-2.99,2-3,0,0-2,2.99-2,3,0Zm-2.48,18.64c-.49-.32-.98-.63-1.47-.95,.49,.32,.98,.63,1.47,.95h0Zm-9.49,5.46c0,.67-1,.67-1,0,0-.67,1-.67,1,0Zm-.15-6.15c-1.28-.74-2.55-1.58-3.68-2.54,1.13,.97,2.39,1.8,3.68,2.54,.26,.15,.53,.29,.79,.43h0c-.26-.14-.53-.28-.79-.43Zm-6.79,3.22c0-.67,1-.67,1,0,0,.67-1,.67-1,0Zm-9.91-14.58c0-1.33,1.99-1.33,2,0,0,1.33-1.99,1.33-2,0Zm.58,25.76c-.21,.47-.95,.14-.73-.33,.21-.47,.95-.14,.73,.33Zm-1.08-20.6c0,.67-1,.67-1,0,0-.67,1-.67,1,0Zm-2.33,16.21c0,.67-1,.67-1,0,0-.67,1-.67,1,0Zm-1.95-19.88c0,.67-1,.67-1,0,0-.67,1-.67,1,0Zm7.71-19.66c.08,.49,.17,.99,.26,1.48,.05,.27,.1,.54,.16,.81-.06-.27-.11-.54-.16-.81-.1-.49-.19-.98-.26-1.48Zm4.85,12.77c.07,.42,.13,.83,.17,1.26,.41,.02,.82,.03,1.23,.05-.42-.01-.83-.03-1.23-.05-.04-.42-.1-.84-.17-1.26-.07-.42-.16-.83-.26-1.23-.25,0-.5-.16-.5-.5,0-.22,.11-.36,.25-.43-.23-.77-.49-1.53-.79-2.25-.22-.52-.44-1.04-.67-1.55-.39-.88-.78-1.75-1.14-2.63,.36,.88,.74,1.75,1.14,2.63,.23,.51,.46,1.03,.67,1.55,.3,.73,.56,1.48,.79,2.26,.3-.16,.74-.02,.75,.43,0,.33-.25,.5-.49,.5,.1,.41,.19,.82,.26,1.23Zm6.34,.83c0,.27-.06,.5-.15,.7-.54,1.11-2.34,1.06-2.75-.17-.05-.16-.09-.33-.09-.52,0-2,2.99-2,3,0Zm-1.78-7.36c0-.67,1-.67,1,0,0,.67-1,.67-1,0Zm1.31,3.07c0-.67,1-.67,1,0,0,.67-1,.67-1,0Zm9.17-5.79c0,.67-1,.67-1,0,0-.67,1-.67,1,0Zm-1.36-2.57c0-.67,1-.67,1,0,0,.67-1,.67-1,0Zm.91,10.19c0,.67-1,.67-1,0,0-.67,1-.67,1,0Zm-.43,10.56c0-2,2.99-2,3,0,0,1.11-.92,1.6-1.75,1.48-.61-.09-1.15-.52-1.23-1.29l-.02-.18Zm4.15,7.65c.04,.15,.09,.3,.13,.45-.04-.15-.08-.3-.13-.45-.15-.51-.31-1-.48-1.49,.17,.49,.33,.98,.48,1.49Zm-.58-22.15c0-.67,1-.67,1,0,0,.67-1,.67-1,0Zm-1.17,17.68c-.12,.15-.24,.29-.35,.44,.12-.15,.24-.29,.35-.44h0Zm-6.29-11.52c0-.67,1-.67,1,0,0,.67-1,.67-1,0Zm1.54,6.82c-.2-.11-.41-.2-.61-.31l-.77-.38,.77,.38c.2,.1,.42,.2,.61,.31Zm-2.27-12.22c0-.67,1-.67,1,0,0,.67-1,.67-1,0Zm-1.04,8.96c0-.67,1-.67,1,0,0,.67-1,.67-1,0Zm-1.77,4.92c0-.67,1-.67,1,0,0,.67-1,.67-1,0Zm-9.73-6c.09,.08,.16,.21,.16,.37,0,.25-.14,.41-.31,.47-.29,.1-.68-.05-.68-.47,0-.5,.56-.62,.84-.38Zm-.37-2.24c.43,.09,.86,.17,1.3,.22-.44-.06-.88-.13-1.3-.22Zm1.94,.31c-.06-.31-.12-.63-.19-.94,.07,.31,.13,.62,.19,.94h0Zm-.73-11.45c0,.67-1,.67-1,0,0-.67,1-.67,1,0Zm1.03,2.82c0-.67,1-.67,1,0,0,.67-1,.67-1,0Zm-2.25,1.34h0c.59,.04,1.16,.45,1.16,1.24,0,.5-.23,.85-.54,1.05l.93,3.13-.93-3.13c-.73,.46-1.95,.12-1.95-1.04,0-.87,.68-1.28,1.34-1.24Zm-4.83,4.88h0l-.13-.1c-.08-.08-.13-.19-.13-.34,0-.67,1-.67,1,0,0,.45-.44,.59-.74,.44,.11,.08,.23,.16,.34,.24,.29-.16,.75-.03,.75,.43v.04h0c-.05,.62-.99,.61-.99-.04,0-.21,.11-.35,.25-.43-.12-.08-.23-.16-.35-.24Zm-4.06-4.44v-.03c0-.67,.99-.67,.99,0,0,.41-.39,.57-.68,.47h0c-.17-.06-.3-.21-.31-.44h0Zm2.12-4.09c0-.67,1-.67,1,0,0,.67-1,.67-1,0Zm3.68,1.34c0-.67,1-.67,1,0,0,.67-1,.67-1,0Zm-8.01,4.93c0,.67-1,.67-1,0,0-.67,1-.67,1,0Zm7.82,16.92c0-.67,1-.67,1,0,0,.67-1,.67-1,0Zm.89,2.94c0,.67-1,.67-1,0,0-.67,1-.67,1,0Zm.09-13.01c0,.67-1,.67-1,0,0-.23,.12-.38,.28-.45,.27-.12,.64,0,.7,.35l.02,.09Zm5.41,1.21c0-.17,.06-.29,.16-.37,.23-.21,.66-.16,.8,.15,.03,.06,.04,.14,.04,.22,0,.1-.03,.18-.07,.25-.14,.25-.46,.3-.69,.17-.14-.08-.24-.21-.24-.42Zm1.22,.28c.1,.01,.21,.02,.31,.03-.1-.01-.21-.02-.31-.03,0,.28,0,.56,0,.84,.02,.83,.12,1.66,.31,2.48-.19-.81-.29-1.64-.31-2.48,0-.28,0-.56,0-.84Zm1.75,29.3c0,.67-1,.67-1,0,0-.67,1-.67,1,0Zm-.64-23.88c.33,.66,.7,1.3,1.16,1.88,.3,.39,.62,.76,.96,1.11-.34-.35-.67-.72-.96-1.11-.45-.58-.83-1.22-1.16-1.88Zm7.64,1.57c1.02,.64,2.02,1.27,2.97,1.87h0c-.95-.6-1.95-1.23-2.97-1.87Zm9.62-21.44c0,.67-1,.67-1,0,0-.67,1-.67,1,0Zm-.72-3.56c0,.67-1,.67-1,0,0-.67,1-.67,1,0Zm-1.18,4.42c0,.67-1,.67-1,0,0-.67,1-.67,1,0Zm-1.38,10.46c.06-.03,.12-.05,.19-.04h.12c.09,0,.17,.02,.25,.07l.1,.08c.06,.06,.1,.14,.13,.23l.02,.14c0,.07-.01,.14-.04,.2-.02,.06-.05,.12-.1,.17-.05,.05-.1,.09-.16,.11-.06,.03-.12,.05-.19,.04h-.12c-.09,0-.17-.02-.25-.07l-.1-.08c-.06-.06-.1-.14-.13-.23l-.02-.14c0-.07,.01-.14,.04-.2,.02-.06,.05-.12,.1-.17,.05-.05,.1-.09,.16-.11Zm-.03-17.21c0,1.66-2.49,1.67-2.5,0,0-1.66,2.49-1.67,2.5,0Zm-1.55,9.82c0,.67-1,.67-1,0,0-.67,1-.67,1,0Zm-2.05-14.24c0,.67-1,.67-1,0,0-.67,1-.67,1,0Zm-1.13,10.81c0,1.33-1.99,1.33-2,0,0-.51,.29-.82,.66-.94,.58-.19,1.33,.12,1.34,.92h0Zm-.15-6.98c0,1-1.5,1-1.5,0,0-1,1.5-1,1.5,0Zm-2.38-4.11c.21-.47,.95-.14,.73,.33-.21,.47-.95,.14-.73-.33Zm.49,7.06c0,1-1.5,1-1.5,0,0-1,1.5-1,1.5,0Zm-1.2-5.15c0,1-1.5,1-1.5,0,0-1,1.5-1,1.5,0Zm-1.8-4.37c.21-.47,.95-.14,.73,.33-.21,.47-.95,.14-.73-.33Zm-.95,10.38c.37,0,.75,.25,.75,.75,0,.25-.09,.44-.23,.56-.42,.38-1.26,.19-1.27-.56,0-.31,.14-.53,.35-.64,.08-.05,.17-.08,.26-.09h.14Zm-1.07-2.7c.28-.26,.85-.14,.85,.36,0,.17-.06,.29-.15,.37-.28,.25-.84,.13-.84-.37,0-.16,.06-.28,.15-.37Zm1.23,6.99c0,1-1.49,1-1.5,0,0-1,1.5-1,1.5,0Zm-1.59-12.64c0,.67-1,.67-1,0,0-.67,1-.67,1,0Zm-1.46,3.4c.04-.62,.99-.61,.99,.04,0,.38-.33,.54-.61,.48-.21-.04-.39-.2-.39-.48v-.04Zm-.14,3.74c.18,.06,.32,.22,.32,.47,0,.5-.56,.63-.84,.38-.09-.08-.16-.21-.16-.37,0-.42,.39-.57,.68-.47Zm-.84,5.12c-.21-.31-.44-.61-.71-.88,.28,.27,.51,.57,.71,.88Zm-1.11-15.31c.21-.47,.95-.14,.73,.33-.21,.47-.95,.14-.73-.33Zm-.49,2.69c0,.67-1,.67-1,0,0-.67,1-.67,1,0Zm-2.07,3.89c.74-.3,1.76,.08,1.76,1.14,0,.46-.19,.79-.47,1-.72,.54-2.02,.21-2.03-.99,0-.6,.32-.98,.73-1.15Zm-2.36-4.97h0c.28-.07,.63,.08,.63,.48,0,.47-.5,.61-.79,.4-.12-.08-.2-.21-.2-.4,0-.27,.17-.43,.37-.48Zm-.44,7.83c-.1-1-.16-2-.14-3.02-.02,1.01,.03,2.02,.14,3.02Zm-.34-2.07c0,.67-1,.67-1,0,0-.67,1-.67,1,0Zm-1.53,3.56c0,.67-1,.67-1,0,0-.67,1-.67,1,0Zm-1.37-7.87c.21-.47,.95-.14,.73,.33-.21,.47-.95,.14-.73-.33Zm-1.25,2.97c0,.67-1,.67-1,0,0-.67,1-.67,1,0Zm-1.31,5.55c.21-.47,.95-.14,.73,.33-.21,.47-.95,.14-.73-.33Zm-.7-2.48c0,.67-1,.67-1,0,0-.67,1-.67,1,0Zm-1.17,4.67c0,.67-1,.67-1,0,0-.67,1-.67,1,0Zm-1.12-6.91c.21-.47,.95-.14,.73,.33-.21,.47-.95,.14-.73-.33Zm-1.92,2.91c-.21,.47-.95,.14-.73-.33,.21-.47,.95-.14,.73,.33Zm-.61,7.16h0c.05,.08,.09,.17,.09,.28,0,.5-.56,.63-.84,.37-.09-.08-.16-.21-.16-.37,0-.55,.67-.64,.91-.29Zm-1.55,5c.21-.47,.95-.14,.73,.33-.21,.47-.95,.14-.73-.33Zm1.33,10.88c0,.67-1,.67-1,0,0-.67,1-.67,1,0Zm-3.01-17.06c0,.67-1,.67-1,0,0-.67,1-.67,1,0Zm-.7,4.79c0,.67-1,.67-1,0,0-.67,1-.67,1,0Zm-1.79,2.58c.37-.5,.75-1,1.15-1.48-.39,.48-.78,.98-1.15,1.48,.1,.1,.15,.25,.08,.43-.1,.23-.34,.27-.52,.19h0c-.19-.08-.32-.28-.21-.52,.13-.3,.48-.28,.66-.1Zm-1.31-4.59c.21-.47,.95-.14,.73,.33-.21,.47-.95,.14-.73-.33Zm-1.17,5.95c0,.67-1,.67-1,0,0-.67,1-.67,1,0Zm-2.59,3.84c.21-.47,.95-.14,.73,.33-.21,.47-.95,.14-.73-.33ZM.49,38.13c.06-.17,.11-.35,.17-.52,.46-1.28,.98-2.56,1.55-3.84-.56,1.27-1.08,2.55-1.55,3.84-.06,.17-.11,.34-.17,.52Zm2.15,.77c-.21,.47-.95,.14-.73-.33,.21-.47,.95-.14,.73,.33Zm-.61-2.6c0-.67,1-.67,1,0,0,.67-1,.67-1,0Zm3.14,12.38c-.21,.47-.95,.14-.73-.33,.21-.47,.95-.14,.73,.33Zm-1.96-4.41c0-1.33,1.99-1.33,2,0,0,1.33-1.99,1.33-2,0Zm1.89-13.51c0-.67,1-.67,1,0,0,.67-1,.67-1,0Zm1.14,3.78c-.21,.47-.95,.14-.73-.33,.21-.47,.95-.14,.73,.33Zm.31,5.42c0-.67,1-.67,1,0,0,.67-1,.67-1,0Zm1.54,13.08c-.21,.47-.95,.14-.73-.33,.21-.47,.95-.14,.73,.33Zm-.21-3.88c0-.67,1-.67,1,0,0,.67-1,.67-1,0Zm.56-14.24c0-.67,1-.67,1,0,0,.67-1,.67-1,0Zm1.37-5.71c-.21,.47-.95,.14-.73-.33,.21-.47,.95-.14,.73,.33Zm.39-2.89c0-.67,1-.67,1,0,0,.67-1,.67-1,0Zm.17,18.29c0-.67,1-.67,1,0,0,.67-1,.67-1,0Zm.5,10.8c0-.67,1-.67,1,0,0,.67-1,.67-1,0Zm.44-15.47c0-.67,1-.67,1,0,0,.67-1,.67-1,0Zm1.77,19.34c-.21,.47-.95,.14-.73-.33,.21-.47,.95-.14,.73,.33Zm.15-10.75c0-.67,1-.67,1,0,0,.67-1,.67-1,0Zm.87-21.49c0-1.33,1.99-1.33,2,0,0,1.33-1.99,1.33-2,0Zm.69,26.64c0-.67,1-.67,1,0,0,.67-1,.67-1,0Zm1.07-9.9h-.12c-.18,0-.35-.05-.5-.14-.07-.05-.13-.11-.2-.16-.12-.13-.21-.28-.26-.46-.01-.09-.02-.18-.04-.27,0-.14,.02-.28,.09-.4,.04-.13,.11-.24,.21-.33,.09-.1,.2-.17,.32-.21,.12-.07,.25-.1,.38-.09h.12c.18,0,.35,.05,.5,.14,.07,.05,.13,.11,.2,.16,.12,.13,.21,.28,.26,.46,.01,.09,.02,.18,.04,.27,0,.14-.02,.27-.09,.4-.04,.13-.11,.24-.21,.33-.09,.1-.2,.17-.32,.21-.12,.07-.25,.09-.38,.09Zm.49,17.38c0-.67,1-.67,1,0,0,.67-1,.67-1,0Zm.18-22.59c0-.67,1-.67,1,0,0,.67-1,.67-1,0Zm.92-9.82c0-.67,1-.67,1,0,0,.67-1,.67-1,0Zm.66,26.88c0-.67,1-.67,1,0,0,.67-1,.67-1,0Zm1.47,8.6c-.21,.47-.95,.14-.73-.33,.21-.47,.95-.14,.73,.33Zm.13-16.7c0-1.66,2.49-1.67,2.5,0,0,1.66-2.49,1.67-2.5,0Zm1.98,17.3c0-.67,1-.67,1,0,0,.67-1,.67-1,0Zm.59-3.07c0-.67,1-.67,1,0,0,.67-1,.67-1,0Zm2.78,6.02c-.21,.47-.95,.14-.73-.33,.21-.47,.95-.14,.73,.33Zm-1.9-15.36c0-1.66,2.49-1.67,2.5,0,0,1.66-2.49,1.67-2.5,0Zm2.22-7.74c0-2,2.99-2,3,0,0,2-2.99,2-3,0Zm1.89,23.2c0-.67,1-.67,1,0,0,.67-1,.67-1,0Zm.98-4.96c-.21,.47-.95,.14-.73-.33,.21-.47,.95-.14,.73,.33Zm-.65-4.87c0-.67,1-.67,1,0,0,.67-1,.67-1,0Zm0-21.85c0-2.33,3.49-2.34,3.5,0,0,2.33-3.49,2.34-3.5,0Zm2.35,14.97c0-.67,1-.67,1,0,0,.67-1,.67-1,0Zm1.83,18.78c0-.67,1-.67,1,0,0,.67-1,.67-1,0Zm.24,2.7c0-.67,1-.67,1,0,0,.67-1,.67-1,0Zm.47-6.02h0c-.22,.04-.44,.04-.65,0-.11,.24-.23,.49-.37,.73,.14-.24,.26-.49,.37-.73-.76-.12-1.44-.69-1.44-1.72,0-1.44,1.33-1.99,2.35-1.65,.48,.16,.88,.51,1.05,1.05,.06,.18,.1,.37,.1,.59,0,1.01-.65,1.58-1.4,1.72Zm1.34-27.25c0-.67,1-.67,1,0,0,.67-1,.67-1,0Zm.51,13.87c0-.67,1-.67,1,0,0,.67-1,.67-1,0Zm.87,16.69c0-.67,1-.67,1,0,0,.67-1,.67-1,0Zm1.91,3.43c0-.67,1-.67,1,0,0,.67-1,.67-1,0Zm.09-12.89c0-.67,1-.67,1,0,0,.67-1,.67-1,0Zm-1.14-4.78c0-2.33,3.49-2.34,3.49,0,0,2.33-3.49,2.34-3.49,0Zm4.64,9.93c0,.67-1,.67-1,0,0-.67,1-.67,1,0Zm-.97,11.05c0-.67,1-.67,1,0,0,.67-1,.67-1,0Zm2.8-18.67c0-.67,1-.67,1,0,0,.67-1,.67-1,0Zm-2.23-13.99c0-.15,.01-.28,.04-.41,.09-.44,.32-.76,.62-.99,.16-.12,.35-.21,.54-.27,.71-.75,1.42-1.5,2.11-2.27,1.69,1.13,3.39,2.23,5.11,3.31,.94,.59,1.89,1.18,2.84,1.77h0c1.93,1.18,3.87,2.35,5.81,3.51-1.94-1.16-3.88-2.32-5.81-3.51h0c-.95-.58-1.9-1.17-2.84-1.77,.04,.14,.08,.28,.12,.42-.04-.14-.08-.28-.12-.42-1.72-1.08-3.42-2.18-5.11-3.31-.7,.77-1.41,1.52-2.11,2.27,1.01-.3,2.29,.25,2.29,1.66v.04c-.05,2.28-3.49,2.27-3.49-.04Zm5.59,6.49c0,.67-1,.67-1,0,0-.67,1-.67,1,0Zm-.96,24.68c0-1.33,1.99-1.33,2,0,0,1.33-1.99,1.33-2,0Zm1.63-7.98c0-1.66,2.49-1.67,2.5,0,0,1.66-2.49,1.67-2.5,0Zm2.22-7.37c0-2,2.99-2,3,0,0,2-2.99,2-3,0Zm2.95,30.81c0-1.33,1.99-1.33,2,0,0,1.33-1.99,1.33-2,0Zm1.44,7.36c0-1.33,1.99-1.33,2,0,0,1.33-1.99,1.33-2,0Zm2.64,6.87c0-1,1.5-1,1.5,0,0,1-1.5,1-1.5,0Zm3.95,6.99c0-.67,1-.67,1,0,0,.67-1,.67-1,0Zm3.53-4.92c0-1,1.5-1,1.5,0,0,1-1.5,1-1.5,0Zm-1-9.45c0-1.66,2.49-1.67,2.5,0,0,1.66-2.49,1.67-2.5,0Zm3.04,15.83c0-.67,1-.67,1,0,0,.67-1,.67-1,0Zm.25,5.65c0-.67,1-.67,1,0,0,.67-1,.67-1,0Zm3.56-.87c0-.67,1-.67,1,0,0,.67-1,.67-1,0Zm2.65-5.78c0,.67-1,.67-1,0,0-.67,1-.67,1,0Zm-1.51-10.06c0-1,1.5-1,1.5,0,0,1-1.5,1-1.5,0Zm-5.02-13.65c-.63,.37-1.58,.16-1.85-.61h0c-.05-.13-.08-.28-.08-.45,0-1.66,2.49-1.67,2.5,0,0,.52-.24,.87-.57,1.07,3.37,1.1,6.76,2.11,10.18,3-3.42-.89-6.81-1.9-10.18-3Zm8.31,4.56c0-1.33,1.99-1.33,2,0,0,1.33-1.99,1.33-2,0Zm16.64-1.13c-.78,.05-1.6-.44-1.6-1.48,0-.22,.04-.41,.1-.58,.52-1.39,2.89-1.2,2.89,.58,0,.96-.68,1.45-1.4,1.49h0Zm.27-9.59c0-2.33,3.49-2.34,3.5,0,0,2.33-3.49,2.34-3.5,0Zm3.05-7.62c0-2.66,3.99-2.67,3.99-.01,0,2.66-3.99,2.67-3.99,.01Zm8.1,12.99c0-2.66,3.99-2.67,3.99-.01,0,2.66-3.99,2.67-3.99,.01Zm2.35-9.09c0-.87,.43-1.45,1-1.75h0c.27-.14,.57-.22,.88-.24,.46-.02,.92,.09,1.3,.35l.09,.02-.09-.02s.1,.07,.15,.11c.27,.23,.48,.54,.59,.93,.05,.18,.09,.38,.09,.59,0,1-.56,1.63-1.27,1.88-1.17,.41-2.72-.21-2.73-1.87Zm4.12-1.42c-.04-.16-.07-.31-.11-.47,.04,.16,.07,.31,.11,.47,.17,.71,.35,1.42,.53,2.13-.18-.71-.36-1.42-.53-2.13Zm2.83-3.54h0c.46,1.46,.91,2.91,1.37,4.34-.46-1.44-.91-2.89-1.37-4.34Zm6.35,9.59c0-2.66,3.99-2.67,3.99-.01,0,2.66-3.99,2.67-3.99,.01Zm12.12,1.2c0-2.33,3.49-2.34,3.49,0,0,2.33-3.49,2.34-3.49,0Zm1.82-3.64c-2.13-.46-4.28-.82-6.43-1.12,2.16,.3,4.3,.65,6.43,1.12,2.05,.45,4.08,.99,6.13,1.41-2.05-.42-4.07-.97-6.13-1.41Zm10.05,2.04v-.15c-.02-2.33,3.47-2.34,3.48,0,0,.17-.02,.32-.05,.46-.42,1.81-3.28,1.71-3.43-.31Zm6.33,.43c2.56,.05,5.12-.05,7.67-.24-2.55,.19-5.11,.29-7.67,.24Zm24.59-2.3c.38-.05,.76-.1,1.14-.16-.38,.05-.76,.11-1.14,.16Zm32.41-14.65c0-1.66,2.49-1.67,2.5,0,0,1.66-2.49,1.67-2.5,0Zm1.09-1.9c.69-.38,1.38-.77,2.05-1.19h0c-.67,.42-1.36,.8-2.05,1.19Zm2.38-3.54c.24-.18,.49-.36,.73-.54-.16,.28-.43,.46-.73,.54Zm1.35-1.21c.08,0,.17,0,.25,0,.99-.78,1.97-1.6,2.91-2.44-.95,.84-1.92,1.66-2.91,2.44-.08,0-.17,0-.25,0Z" fill="#fff"></path>
  </g>
</svg>
